<svg width="25" height="25" viewBox="0 0 30 29" fill="none" xmlns="http://www.w3.org/2000/svg">
<path fill-rule="evenodd" clip-rule="evenodd" d="M15 0C6.7125 0 0 6.48875 0 14.5C0 20.9163 4.29375 26.3356 10.2563 28.2569C11.0063 28.3838 11.2875 27.9488 11.2875 27.5681C11.2875 27.2238 11.2688 26.0819 11.2688 24.8675C7.5 25.5381 6.525 23.9794 6.225 23.1638C6.05625 22.7469 5.325 21.46 4.6875 21.1156C4.1625 20.8438 3.4125 20.1731 4.66875 20.155C5.85 20.1369 6.69375 21.2063 6.975 21.6413C8.325 23.8344 10.4812 23.2181 11.3438 22.8375C11.475 21.895 11.8688 21.2606 12.3 20.8981C8.9625 20.5356 5.475 19.285 5.475 13.7388C5.475 12.1619 6.05625 10.8569 7.0125 9.84188C6.8625 9.47938 6.3375 7.99313 7.1625 5.99938C7.1625 5.99938 8.41875 5.61875 11.2875 7.48563C12.4875 7.15938 13.7625 6.99625 15.0375 6.99625C16.3125 6.99625 17.5875 7.15938 18.7875 7.48563C21.6562 5.60063 22.9125 5.99938 22.9125 5.99938C23.7375 7.99313 23.2125 9.47938 23.0625 9.84188C24.0188 10.8569 24.6 12.1438 24.6 13.7388C24.6 19.3031 21.0938 20.5356 17.7563 20.8981C18.3 21.3513 18.7688 22.2213 18.7688 23.5806C18.7688 25.52 18.75 27.0788 18.75 27.5681C18.75 27.9488 19.0312 28.4019 19.7812 28.2569C22.759 27.285 25.3465 25.435 27.1796 22.9672C29.0127 20.4994 29.9991 17.5381 30 14.5C30 6.48875 23.2875 0 15 0Z" fill="#171515"/>
</svg>
