<svg width="25" height="25" viewBox="0 0 30 29" fill="none" xmlns="http://www.w3.org/2000/svg">
<g clip-path="url(#clip0_1_332)">
<path d="M25.5613 24.7097H21.1162V17.9805C21.1162 16.3758 21.0866 14.3102 18.8044 14.3102C16.4892 14.3102 16.135 16.0585 16.135 17.8637V24.7093H11.69V10.8713H15.9572V12.7624H16.0169C16.444 12.0565 17.0611 11.4759 17.8025 11.0822C18.5439 10.6886 19.3819 10.4967 20.2273 10.527C24.7325 10.527 25.5632 13.3917 25.5632 17.1184L25.5613 24.7097ZM6.67441 8.97982C5.24976 8.98004 4.09464 7.86377 4.09441 6.48661C4.09417 5.10945 5.24882 3.99284 6.67347 3.99261C8.09812 3.99227 9.25324 5.10854 9.25347 6.4857C9.2536 7.14704 8.98195 7.78135 8.49828 8.24908C8.01462 8.71681 7.35855 8.97967 6.67441 8.97982ZM8.89699 24.7098H4.44726V10.8713H8.89687V24.7097L8.89699 24.7098ZM27.7773 0.00204961H2.21367C1.00546 -0.011091 0.0146436 0.924499 -0.00012207 2.09243V26.907C0.0141748 28.0755 1.00488 29.012 2.21355 28.9998H27.7773C28.9886 29.0143 29.9831 28.0778 29.9999 26.907V2.0905C29.9827 0.920307 28.988 -0.0151691 27.7773 0.000123828" fill="#0A66C2"/>
</g>
<defs>
<clipPath id="clip0_1_332">
<rect width="30" height="29" fill="white"/>
</clipPath>
</defs>
</svg>
