<svg width="25" height="25" viewBox="0 0 60 60" fill="none" xmlns="http://www.w3.org/2000/svg">
<g clip-path="url(#clip0_39_5)">
<path d="M30.6625 0.00494955C28.6195 -0.0345346 26.578 0.136366 24.57 0.51495C59.26 4.77495 50.245 45.3649 28.8625 45.0624C28.8625 45.0624 59.995 49.125 58.045 19.5249C55.979 13.8911 52.2592 9.01289 47.3729 5.52966C42.4867 2.04644 36.6621 0.120732 30.6625 0.00494955V0.00494955ZM20.5325 2.06745C20.0325 2.07245 19.5275 2.08745 19.0075 2.10745C12.7449 4.52877 7.49005 9.00466 4.10324 14.8022C0.716437 20.5998 -0.601582 27.3755 0.364996 34.0199C7.325 -1.05255 47.0125 10.3049 44.75 31.7199C44.75 31.7199 51.875 1.68495 20.53 2.06745H20.5325ZM24.1675 14.6549C15.005 14.7149 1.7275 18.6249 2.04 40.8599C3.63325 44.9546 6.10555 48.6498 9.2825 51.6849C9.4125 51.8124 9.5525 51.9349 9.6875 52.0574C10.587 52.8862 11.5363 53.6594 12.53 54.3724C12.6825 54.4824 12.83 54.6024 12.9825 54.7099C14.0332 55.4284 15.1287 56.0789 16.2625 56.6574C16.5925 56.8274 16.9275 56.9824 17.2625 57.1399C18.2388 57.5992 19.2395 58.0048 20.26 58.3549C20.51 58.4399 20.7475 58.5474 21.0025 58.6274C22.2239 59.0015 23.4681 59.2962 24.7275 59.5099C25.11 59.5774 25.495 59.6349 25.88 59.6849C27.1868 59.874 28.5047 59.9768 29.825 59.9924L29.975 59.9999C30.975 59.9999 31.955 59.9474 32.925 59.8499C-1.9475 51.5324 11.3125 12.54 32.64 15.65C32.64 15.65 28.9675 14.6249 24.1675 14.6549V14.6549ZM30.2575 21.5599C28.5986 21.5595 26.9768 22.0509 25.5972 22.9721C24.2176 23.8933 23.1422 25.203 22.5069 26.7354C21.8716 28.2678 21.705 29.9542 22.0282 31.5813C22.3513 33.2084 23.1497 34.7032 24.3224 35.8765C25.495 37.0499 26.9893 37.8492 28.6162 38.1733C30.2431 38.4974 31.9296 38.3318 33.4624 37.6974C34.9952 37.0631 36.3055 35.9884 37.2276 34.6094C38.1496 33.2303 38.642 31.6088 38.6425 29.9499C38.6428 28.8485 38.4262 27.7577 38.005 26.74C37.5838 25.7223 36.9662 24.7974 36.1876 24.0184C35.409 23.2393 34.4846 22.6212 33.4671 22.1994C32.4496 21.7776 31.359 21.5603 30.2575 21.5599V21.5599ZM15.3825 27.0399C15.3825 27.0399 7.05 57.7249 40.43 57.9899C45.6649 56.0453 50.2517 52.6756 53.6723 48.2614C57.093 43.8473 59.2111 38.5645 59.7875 33.01C59.87 32.2125 59.895 31.4 59.9125 30.585C59.915 30.3725 59.945 30.165 59.945 29.9475C59.945 29.02 59.8875 28.1049 59.805 27.1974C50.9875 61.9149 11.975 48.3174 15.38 27.0399H15.3825Z" fill="white"/>
</g>
<defs>
<clipPath id="clip0_39_5">
<rect width="60" height="60" fill="white"/>
</clipPath>
</defs>
</svg>
